<svg xmlns="http://www.w3.org/2000/svg" width="128" height="128" xml:space="preserve"><path fill="#282D33" d="M43.861 128h-4v-12.523H24.388c-7.184 0-13.03-5.791-13.03-12.908V88.6H.367l14.69-25.156a36.42 36.42 0 0 1-.026-1.325c0-15.523 8.562-29.802 22.343-37.261l1.905 3.518c-12.489 6.76-20.248 19.689-20.248 33.743 0 .583.021 1.163.046 1.739l.026.588L7.335 84.6h8.022v17.969c0 4.912 4.051 8.909 9.03 8.909h19.474V128zM84.908 90.688h3.999v37.313h-3.999zM84.971 84.396c-9.399 0-18.275-2.955-25.734-8.556l-11.308 2.994 3.031-11.18c-5.663-7.38-8.649-16.16-8.649-25.457C42.311 18.929 61.448 0 84.971 0c23.524 0 42.662 18.929 42.662 42.197 0 23.268-19.138 42.199-42.662 42.199zm-24.843-12.93.783.617c6.909 5.438 15.229 8.312 24.06 8.312 21.318 0 38.663-17.135 38.663-38.197C123.634 21.135 106.289 4 84.971 4c-21.317 0-38.66 17.135-38.66 38.198 0 8.716 2.904 16.932 8.4 23.757l.639.794-1.747 6.445 6.525-1.728z"/><path fill="#282D33" d="M79.238 43.922 66.252 31.953l12.986-11.965 2.711 2.941-9.795 9.025 9.795 9.026z"/><path fill="#282D33" d="M70.419 29.955h28.327v4H70.419z"/><g><path fill="#282D33" d="m88.708 63.064-2.709-2.942 9.795-9.02-9.796-9.029 2.711-2.941 12.989 11.972z"/><path fill="#282D33" d="M69.203 49.099h28.328v4H69.203z"/></g></svg>