<svg xmlns="http://www.w3.org/2000/svg" width="128" height="128" xml:space="preserve"><path fill="#282D33" d="M71.311 99.492a6.295 6.295 0 0 1-2.87-.693l-5.674-2.864a18.17 18.17 0 0 1-.633-.223l-3.606-1.338 3.167-2.184a2.43 2.43 0 0 0 .808-.928l1.549-3.125c.597-1.205.112-2.679-1.081-3.281a2.34 2.34 0 0 0-1.81-.133 2.383 2.383 0 0 0-1.39 1.216l-1.547 3.12a2.437 2.437 0 0 0-.244 1.252l.254 3.521-9.316-4.708 2.896-1.896c.362-.237.645-.556.837-.946l4.515-9.108c.596-1.209.114-2.687-1.075-3.289a2.35 2.35 0 0 0-1.806-.131 2.393 2.393 0 0 0-1.393 1.217l-4.509 9.112a2.382 2.382 0 0 0-.248 1.246l.253 3.521-9.32-4.709 2.903-1.897c.354-.231.642-.557.831-.94l3.659-7.382c.597-1.207.116-2.68-1.072-3.278a2.336 2.336 0 0 0-1.806-.138 2.392 2.392 0 0 0-1.394 1.22l-3.657 7.378a2.407 2.407 0 0 0-.244 1.245l.25 3.517-9.692-4.89 2.873-1.902c.375-.248.66-.567.848-.948l1.547-3.127c.6-1.207.12-2.678-1.068-3.28a2.339 2.339 0 0 0-1.809-.136 2.386 2.386 0 0 0-1.393 1.219l-1.545 3.12c-.188.38-.273.789-.254 1.219l.182 3.912-3.275-2.146a12.421 12.421 0 0 1-3.324-3.196l3.26-2.32c.039.056.079.11.12.165l1.252-2.528a6.357 6.357 0 0 1 3.716-3.241 6.303 6.303 0 0 1 4.879.364 6.426 6.426 0 0 1 3.396 4.517l.354-.716a6.365 6.365 0 0 1 3.717-3.241 6.301 6.301 0 0 1 4.873.364 6.412 6.412 0 0 1 3.372 4.382 6.357 6.357 0 0 1 2.453-1.495 6.316 6.316 0 0 1 4.876.356c3.139 1.59 4.419 5.462 2.855 8.632l-1.008 2.034c.05-.019.101-.036.152-.053a6.31 6.31 0 0 1 4.879.356c3.146 1.591 4.429 5.461 2.861 8.628l-1.55 3.126-.036.072 4.199 2.119a2.34 2.34 0 0 0 1.803.14 2.394 2.394 0 0 0 1.395-1.218 2.506 2.506 0 0 0-.257-2.613l-.916-1.199.9-1.211a8.78 8.78 0 0 0 .569-.881l.945-1.641 5.417 2.739a2.335 2.335 0 0 0 1.81.131 2.386 2.386 0 0 0 1.39-1.214c.595-1.209.113-2.686-1.076-3.286l-5.471-2.775 2.177-4.343 10.475 5.305a2.356 2.356 0 0 0 1.81.13 2.38 2.38 0 0 0 1.387-1.215c.604-1.215.123-2.688-1.068-3.289l-10.39-5.254.719-1.717c.09-.214.158-.43.227-.645l.708-2.246 14.871 7.523a2.32 2.32 0 0 0 1.796.136 2.397 2.397 0 0 0 1.401-1.224c.598-1.208.117-2.681-1.071-3.282L77.995 61.048a21.6 21.6 0 0 1-3.346-.469c-4.326-.966-8.186-3.252-10.772-6.346l-6.077.679-.038.205c-.522 2.579-1.997 4.773-4.159 6.203a9.5 9.5 0 0 1-7.199 1.394l-2.49-.514c-.146-.034-.23-.058-.315-.082l-1.838-.475.29-1.884 3.333-16.405 12.228-2.549 6.009-1.168 2.347.525-.19-.609-9.805-.991-5.202-.448-17.703 5.957-1.275-3.792 18.492-6.223 6.062.523 12.475 1.301 3.033 9.699-8.29-1.856-5.16 1.004-9.623 2.005-2.415 11.889.847.175a5.52 5.52 0 0 0 4.186-.813 5.664 5.664 0 0 0 2.439-3.635l.583-3.083 11.294-1.264.684.955c1.992 2.783 5.315 4.867 9.12 5.716 1.025.227 2.063.361 3.079.399l.437.017 22.572 11.425c3.139 1.588 4.419 5.457 2.851 8.626a6.376 6.376 0 0 1-3.729 3.246 6.303 6.303 0 0 1-3.884.034 6.448 6.448 0 0 1-.65 3.435 6.348 6.348 0 0 1-3.703 3.233 6.326 6.326 0 0 1-4.882-.354l-.073-.033a6.453 6.453 0 0 1-.646 3.334 6.357 6.357 0 0 1-3.71 3.238 6.32 6.32 0 0 1-4.879-.354l-.623-.315a6.491 6.491 0 0 1-.648 3.325 6.372 6.372 0 0 1-3.724 3.24 6.344 6.344 0 0 1-1.997.324z"/><path fill="#282D33" d="M100.356 72.362 77.994 61.051l-.231-.015-.291-.019c-.284-.028-.575-.06-.864-.096l-.093-.012a23.207 23.207 0 0 1-.799-.122l-.153-.027a16.94 16.94 0 0 1-.931-.184 34.362 34.362 0 0 1-.87-.211l-.518-.152a11.262 11.262 0 0 1-.857-.277l-.069-.022c-.11-.036-.222-.072-.329-.111l-.807-.313a26.493 26.493 0 0 1-.602-.263l.701-1.878-.794 1.836-.135-.06c-.115-.053-.232-.11-.35-.168l-.478-.242a9.845 9.845 0 0 1-.63-.343c0-.001-.071-.034-.148-.084a11.304 11.304 0 0 1-.521-.313 1.527 1.527 0 0 1-.231-.147c-1.44-.936-3.141-2.585-4.085-3.551l-6.111.645-.036.195c-.522 2.579-1.998 4.773-4.16 6.203a9.497 9.497 0 0 1-7.198 1.394l-2.49-.515c-.14-.032-.226-.056-.312-.08l-1.843-.472.291-1.888 3.331-16.396 1.398-.302 16.699-3.452 19.751 4.408 13.101-4.406 1.275 3.792-14.159 4.763-20-4.466-14.668 3.033-2.415 11.887.848.175a5.522 5.522 0 0 0 4.185-.813 5.662 5.662 0 0 0 2.439-3.635l.585-3.092 11.042-1.164.682.734c.686.741 2.758 2.846 4.09 3.686l.188.119c.144.09.255.158.371.223.014.006.067.034.117.063.161.095.314.178.47.256.077.039.139.071.192.1l.449.218c.123.054.192.084.261.117.108.049.263.116.418.182l.981.363c.163.059.261.095.358.125.121.039.214.065.308.092l.155.045c.048.013.145.042.24.072.259.068.518.132.78.191a19.966 19.966 0 0 0 1.533.269l.055.007c.233.029.47.055.701.078l.206.013c.191.012.381.024.564.03l.441.016 21.645 10.948 5.136-1.727 1.273 3.792-6.72 2.259zM60.354 96.601c-.001 0 0 0 0 0a6.36 6.36 0 0 1-2.86-.684c-3.14-1.591-4.42-5.463-2.855-8.633l1.546-3.121a6.362 6.362 0 0 1 8.591-2.878c3.145 1.589 4.429 5.459 2.858 8.628l-1.55 3.124c-1.094 2.197-3.289 3.564-5.73 3.564zm1.554-12.002c-.911 0-1.73.513-2.139 1.339l-1.547 3.119c-.597 1.21-.114 2.688 1.077 3.291 1.151.582 2.623.07 3.201-1.092l1.549-3.121c.597-1.205.112-2.678-1.081-3.28a2.318 2.318 0 0 0-1.06-.256zM30.428 81.46a6.374 6.374 0 0 1-2.86-.682c-3.148-1.588-4.428-5.462-2.853-8.637l1.544-3.117a6.35 6.35 0 0 1 5.721-3.566c.991 0 1.985.239 2.875.69 3.138 1.588 4.415 5.458 2.845 8.624l-1.544 3.121a6.353 6.353 0 0 1-5.728 3.567zm1.551-12.001c-.908 0-1.727.514-2.136 1.34l-1.545 3.119c-.602 1.213-.121 2.688 1.07 3.288 1.161.586 2.627.075 3.199-1.084l1.546-3.126c.6-1.207.119-2.678-1.068-3.279a2.331 2.331 0 0 0-1.066-.258z"/><path fill="#282D33" d="M50.511 91.622c-.001 0-.001 0 0 0-.989 0-1.98-.238-2.866-.689-3.145-1.593-4.422-5.465-2.846-8.631l4.508-9.106a6.367 6.367 0 0 1 8.589-2.881c3.139 1.589 4.419 5.461 2.855 8.631l-4.515 9.11a6.36 6.36 0 0 1-5.725 3.566zm4.523-17.992c-.913 0-1.733.513-2.143 1.339l-4.509 9.112c-.603 1.209-.12 2.681 1.072 3.284 1.164.591 2.621.074 3.196-1.086l4.514-9.107c.596-1.209.114-2.687-1.075-3.289a2.31 2.31 0 0 0-1.055-.253z"/><path fill="#282D33" d="M40.667 86.64c-.99 0-1.982-.238-2.87-.689-3.133-1.586-4.413-5.455-2.851-8.622l3.658-7.38a6.35 6.35 0 0 1 5.72-3.565c.989 0 1.982.238 2.871.689 3.136 1.58 4.418 5.449 2.852 8.623l-3.658 7.378c-1.09 2.198-3.283 3.566-5.722 3.566zm3.657-16.256c-.907 0-1.726.514-2.135 1.34l-3.657 7.378c-.595 1.205-.113 2.679 1.075 3.28.336.171.691.257 1.06.257a2.38 2.38 0 0 0 2.137-1.343l3.657-7.375c.597-1.208.116-2.68-1.071-3.278a2.332 2.332 0 0 0-1.066-.259z"/><g><path fill="#282D33" d="M107.35 77.24 94.453 38.088l20.651-8.6L128 68.649l-20.65 8.591zm-7.937-36.884 10.386 31.531 13.241-5.509-10.386-31.537-13.241 5.515z"/></g><g><path fill="#282D33" d="M22.112 80.688 0 72.547l14.504-44.039 22.108 8.141-14.5 44.039zM5.008 70.129l14.601 5.375 11.995-36.437-14.596-5.375-12 36.437z"/></g><g><path fill="#282D33" d="m13.832 64.84 4.567 1.537-1.276 3.792-4.567-1.537z"/></g><g><path fill="#282D33" d="m114.842 62.247 1.248 3.8-3.929 1.29-1.248-3.8z"/></g></svg>