<svg xmlns="http://www.w3.org/2000/svg" width="128" height="128" xml:space="preserve">
    <path fill="#282D33" d="M62.77 77.859h-4v-7.826l1.528-.371c1.109-.27 3.117-1.354 
    4.301-2.074l11.617-13.711v-8.518l-.244-.08.244-1.549v-5.904h-.158c-2.476 0-4.49 1.993-4.49 4.443v8.715l-.09 
    2.161-3.998-.082-.024-18.167 4-.005v.286a8.478 8.478 0 0 1 4.603-1.351h4.02l.015.173.124.011.022 1.673.134 
    1.856-.156.023v17.781L67.247 70.65l-.261.164c-.278.176-2.291 1.428-4.216 2.219v4.826z"/>
    <path fill="#282D33" d="M68.412 127.998h-4V79.051h-6.414v-4h10.414zM36.939 39.976h-4v-20.24c0-3.434 
    2.807-6.228 6.257-6.228s6.257 2.794 6.257 6.228v15.306h-4V19.736c0-1.229-1.013-2.228-2.257-2.228s-2.257 
    1-2.257 2.228v20.24z"/>
    <path fill="#282D33" d="M54.114 35.042h-4V10.556c0-1.229-1.012-2.228-2.257-2.228-1.244 
    0-2.256 1-2.256 2.228v24.486h-4V10.556c0-3.434 2.806-6.228 6.256-6.228s6.257 2.794 6.257 6.228v24.486z"/>
    <path fill="#282D33" d="M62.774 35.042h-4V6.228C58.774 5 57.762 4 56.518 4c-1.245 0-2.257 1-2.257 
    2.228v28.814h-4V6.228C50.261 2.794 53.068 0 56.518 0c3.45 0 6.256 2.794 6.256 6.228v28.814z"/>
    <path fill="#282D33" d="M71.436 35.042h-4v-21.5c0-1.228-1.012-2.226-2.256-2.226-1.245 0-2.258.999-2.258 
    2.226v21.5h-4v-21.5c0-3.433 2.807-6.226 6.258-6.226 3.449 0 6.256 2.793 6.256 6.226v21.5z"/>
    <g><path fill="#282D33" d="M26.495 128h-4v-10.923c-1.925-.79-3.937-2.043-4.215-2.219l-.26-.164L5.047 
    99.386l-.003-11.349-.063-1.469.065-.023v-4.877l-.107-.012.107-2.34v-1.229l.066-.007.011-.21 
    4.083-.001c1.695 0 3.275.496 4.602 1.351v-.288l4 
    .006-.025 18.166-3.998.082-.088-2.078-.002-8.8c0-2.447-2.014-4.438-4.489-4.438h-.159v5.942l.116 1.5-
    .116.042v8.564l11.622 13.714c1.183.722 3.188 1.805 4.294 2.071l1.532.369V128zM47.735 127.998h-4v-
    15.285l.808-.6c2.405-1.786 3.785-4.508 3.785-7.469V78.936h4v25.709c0 3.895-1.661 7.497-4.592 10.032v13.321z"/>
    <path fill="#282D33" d="M52.327 79.083h-4V63.777c0-1.228-1.013-2.226-2.257-2.226-1.244 0-2.256.999-2.256 
    2.226v15.306h-4V63.777c0-3.433 2.806-6.226 6.256-6.226s6.257 2.793 6.257 6.226v15.306z"/>
    <path fill="#282D33" d="M43.666 79.083h-4V54.599c0-1.229-1.012-2.228-2.257-2.228-1.244 0-2.256 1-2.256 
    2.228v24.484h-4V54.599c0-3.434 2.807-6.228 6.256-6.228 3.45 0 6.257 2.794 6.257 6.228v24.484z"/>
    <path fill="#282D33" d="M35.004 79.083h-4V50.269c0-1.228-1.012-2.226-2.256-2.226-1.245 0-2.257.999-2.257 
    2.226v28.814h-4V50.269c0-3.433 2.807-6.226 6.257-6.226 3.45 0 6.256 2.793 6.256 6.226v28.814z"/>
    <path fill="#282D33" d="M26.344 79.083h-4V57.584c0-1.229-1.012-2.228-2.256-2.228s-2.256 1-2.256 
    2.228v21.499h-4V57.584c0-3.434 2.806-6.228 6.256-6.228s6.256 2.794 6.256 6.228v21.499z"/></g>
    <g><path fill="#282D33" d="M96.837 118.07h-4v-4.825c-1.924-.79-3.937-2.043-4.215-2.218l-.261-
    .164-12.972-15.311-.002-11.34-.066-1.436.068-.026v-4.957l-.122-.016.122-2.209v-1.356l.089-.008.012-.168 
    4.061-.001c1.694 0 3.275.496 4.603 1.351v-.289l4 .006-.025 18.168-3.998.082-.088-2.078-.002-8.798c0-2.449
    -2.014-4.441-4.489-4.441h-.161v5.868l.276 1.474-.276.108v8.6l11.62 13.716c1.185.722 3.191 1.805 4.298 
    2.071l1.53.37v7.827zM118.078 118.068h-4v-9.188l.807-.601c2.405-1.787 3.784-4.51 3.784-7.468V75.1h4v25.713c0 
    3.892-1.661 7.493-4.591 10.03v7.225z"/>
    <path fill="#282D33" d="M122.98 128h-4v-8.739H83.359V128h-4v-12.739h43.621zM122.669 75.249h-4V59.945c0-
    1.229-1.013-2.229-2.258-2.229-1.244 0-2.257 1-2.257 2.229v15.304h-4V59.945c0-3.435 2.807-6.229 6.257-6.229s6
    .258 2.794 6.258 6.229v15.304z"/><path fill="#282D33" d="M114.008 75.249h-4V50.765c0-1.229-1.013-2.228-2.257-2.228s-2.257 1-2.257 2.228v24.484h-4V50.765c0-3.434 2.807-6.228 6.257-6.228s6.257 2.794 6.257 6.228v24.484z"/><path fill="#282D33" d="M105.346 75.249h-4V46.436c0-1.228-1.012-2.226-2.256-2.226s-2.257.999-2.257 2.226v28.813h-4V46.436c0-3.433 2.807-6.226 6.257-6.226 3.449 0 6.256 2.793 6.256 6.226v28.813z"/><path fill="#282D33" d="M96.688 75.249h-4V53.751c0-1.229-1.013-2.228-2.258-2.228-1.244 0-2.256 1-2.256 2.228v21.498h-4V53.751c0-3.434 2.807-6.228 6.256-6.228 3.45 0 6.258 2.794 6.258 6.228v21.498z"/></g></svg>