<svg xmlns="http://www.w3.org/2000/svg" width="128" height="128" xml:space="preserve"><path fill="#282D33" d="M22.854 128c-11.583 0-21.007-9.526-21.007-21.236 0-11.711 9.424-21.238 21.007-21.238s21.007 9.527 21.007 21.238C43.86 118.474 34.437 128 22.854 128zm0-38.475c-9.378 0-17.007 7.733-17.007 17.238 0 9.504 7.629 17.236 17.007 17.236 9.377 0 17.007-7.732 17.007-17.236-.001-9.504-7.631-17.238-17.007-17.238z"/><path fill="#282D33" d="M22.852 113.499c-4.974 0-9.021-4.084-9.021-9.104s4.047-9.104 9.021-9.104 9.02 4.084 9.02 9.104c-.001 5.02-4.047 9.104-9.02 9.104zm0-14.208c-2.769 0-5.021 2.289-5.021 5.104s2.252 5.104 5.021 5.104c2.768 0 5.02-2.29 5.02-5.104s-2.253-5.104-5.02-5.104z"/><path fill="#282D33" d="M37.136 119.973h-4v-.58c0-2.814-2.251-5.104-5.018-5.104h-10.53c-2.769 0-5.021 2.289-5.021 5.104v.58h-4v-.58c0-5.02 4.047-9.104 9.021-9.104h10.53c4.973 0 9.018 4.084 9.018 9.104v.58zM76.663 100.133c-10.964 0-21.313-3.543-29.995-10.256l-12.777 3.461 3.424-12.923c-6.64-8.786-10.144-19.256-10.144-30.348C27.171 22.46 49.373 0 76.662 0s49.491 22.46 49.491 50.067c0 27.606-22.201 50.066-49.49 50.066zM47.577 85.486l.794.64c8.126 6.547 17.909 10.007 28.292 10.007 25.083 0 45.49-20.665 45.49-46.066C122.153 24.666 101.746 4 76.662 4S31.171 24.666 31.171 50.067c0 10.522 3.424 20.437 9.901 28.671l.617.784-2.158 8.144 8.046-2.18z"/><g><path fill="#282D33" d="M76.662 87.04c-1.396 0-2.804-.081-4.182-.241l.461-3.973c1.226.142 2.478.214 3.721.214v4zm.614-.005-.066-4c1.24-.021 2.49-.113 3.716-.276l.527 3.965a36.41 36.41 0 0 1-4.177.311zm-8.923-.959a36.371 36.371 0 0 1-4.017-1.199l1.366-3.76a32 32 0 0 0 3.57 1.066l-.919 3.893zm17.214-.146-.984-3.877a32.17 32.17 0 0 0 3.552-1.126l1.428 3.736a36.189 36.189 0 0 1-3.996 1.267zm-25.081-2.71a36.44 36.44 0 0 1-3.632-2.089l2.19-3.348a32.305 32.305 0 0 0 3.232 1.86l-1.79 3.577zm32.896-.279-1.852-3.545a32.325 32.325 0 0 0 3.199-1.913l2.246 3.311a36.562 36.562 0 0 1-3.593 2.147zm-39.894-4.298a37.324 37.324 0 0 1-3.062-2.852l2.887-2.77c.86.897 1.779 1.753 2.731 2.545l-2.556 3.077zm46.811-.392-2.605-3.035a32.973 32.973 0 0 0 2.688-2.588l2.934 2.721a37.54 37.54 0 0 1-3.017 2.902zm-52.593-5.639a37.243 37.243 0 0 1-2.346-3.463l3.433-2.053a33.439 33.439 0 0 0 2.093 3.09l-3.18 2.426zm58.275-.486-3.219-2.375a33.338 33.338 0 0 0 2.043-3.125l3.467 1.996a36.925 36.925 0 0 1-2.291 3.504zm-62.562-6.681a37.37 37.37 0 0 1-1.511-3.903l3.806-1.23a33.05 33.05 0 0 0 1.348 3.48l-3.643 1.653zm66.735-.562-3.67-1.591c.495-1.143.93-2.321 1.29-3.504l3.826 1.167a37.087 37.087 0 0 1-1.446 3.928zm-69.306-7.388a37.034 37.034 0 0 1-.599-4.141l3.984-.349a33.09 33.09 0 0 0 .534 3.694l-3.919.796zm71.746-.605-3.934-.729c.226-1.214.385-2.46.473-3.704l3.99.284a37.662 37.662 0 0 1-.529 4.149zm-68.479-7.619-3.999-.094c.033-1.395.145-2.797.331-4.169l3.964.54a33.66 33.66 0 0 0-.296 3.723zm65.076-.548a33.997 33.997 0 0 0-.357-3.719l3.955-.604c.208 1.367.343 2.767.398 4.162l-3.996.161zm-64.07-6.84-3.878-.98a37.13 37.13 0 0 1 1.255-3.995l3.742 1.413a33.329 33.329 0 0 0-1.119 3.562zm62.942-.532a32.918 32.918 0 0 0-1.177-3.54l3.717-1.477a36.53 36.53 0 0 1 1.321 3.972l-3.861 1.045zm-60.308-6.442-3.559-1.827a37.27 37.27 0 0 1 2.119-3.609l3.33 2.216a33.065 33.065 0 0 0-1.89 3.22zm57.56-.485a33.353 33.353 0 0 0-1.941-3.187l3.293-2.271a37.228 37.228 0 0 1 2.176 3.572l-3.528 1.886zM51.886 28.7l-3.06-2.576a37.197 37.197 0 0 1 2.872-3.044l2.75 2.904a33.364 33.364 0 0 0-2.562 2.716zm49.199-.412a33.324 33.324 0 0 0-2.604-2.672l2.701-2.949a37.037 37.037 0 0 1 2.921 2.997l-3.018 2.624zm-43.787-4.712-2.404-3.197a36.967 36.967 0 0 1 3.483-2.321l2.024 3.45a32.924 32.924 0 0 0-3.103 2.068zm38.293-.322a32.52 32.52 0 0 0-3.139-2.017l1.967-3.483a36.689 36.689 0 0 1 3.523 2.264l-2.351 3.236zm-31.872-3.442-1.612-3.66a35.926 35.926 0 0 1 3.926-1.464l1.178 3.822a32.24 32.24 0 0 0-3.492 1.302zm25.385-.215a32.209 32.209 0 0 0-3.513-1.243l1.111-3.843c1.337.387 2.666.857 3.952 1.398l-1.55 3.688zm-18.277-1.974-.725-3.934a36.332 36.332 0 0 1 4.16-.518l.262 3.991c-1.236.082-2.48.237-3.697.461zm11.131-.094a32.32 32.32 0 0 0-3.705-.397l.195-3.995c1.394.068 2.795.219 4.166.446l-.656 3.946z"/></g><g><path fill="#282D33" d="m78.83 51.076-2.553-3.079 3.923-3.234c.765-.492 2.046-1.466 2.046-2.454v-3.607c0-1.821-1.451-3.302-3.235-3.302h-4.205c-1.783 0-3.234 1.481-3.234 3.302v1.687h-4v-1.687c0-4.026 3.245-7.302 7.234-7.302h4.205c3.989 0 7.235 3.276 7.235 7.302v3.607c0 2.17-1.27 4.104-3.774 5.748l-3.642 3.019z"/><path fill="#282D33" d="M76.224 57.554h-4v-3.608c0-2.171 1.271-4.103 3.775-5.744l3.639-3.021 2.555 3.077-3.925 3.24c-.763.491-2.044 1.461-2.044 2.447v3.609zM72.224 61.581h4v5.131h-4z"/></g></svg>