<svg xmlns="http://www.w3.org/2000/svg" width="128" height="128" xml:space="preserve">
    <path fill="#282D33" d="M73.375 128H52.47l-1.348-16.365a48.185 48.185 0 0 1-13.301-5.931L25.83 
    115.958l-14.76-14.926 10.488-12.529a49.141 49.141 0 0 1-5.261-13.733L.652 73.45V52.374l16.193-1.367a49.155 
    49.155 0 0 1 5.88-13.468L12.588 25.43l14.768-14.923 12.404 10.61a48.03 48.03 0 0 1 13.56-5.301L54.625 
    0h20.904l1.348 16.367a48.201 48.201 0 0 1 13.302 5.93l11.99-10.25 14.76 14.921-10.489 12.529a49.284 49.284 
    0 0 1 5.258 13.734l15.65 1.314V75.63l-16.195 1.361a49.279 49.279 0 0 1-5.881 13.468l10.14 12.11-14.769 
    14.923-12.408-10.608a48.017 48.017 0 0 1-13.557 5.3L73.375 128zm-17.221-4h13.537l1.246-15.146 1.491-.286a44.13 
    44.13 0 0 0 14.96-5.838l1.242-.77 11.785 10.075 9.591-9.69-9.716-11.604.838-1.247a45.338 45.338 0 0 0 
    6.49-14.841l.335-1.408 15.394-1.293V58.224l-14.993-1.259-.282-1.495a45.35 45.35 0 0 0-5.781-15.141l-.74-1.223 
    9.974-11.914-9.584-9.689-11.477 9.812-1.265-.869a44.303 44.303 0 0 0-14.672-6.556l-1.402-.341L71.846 
    4H58.309l-1.251 15.146-1.49.287a44.076 44.076 0 0 0-14.96 5.839l-1.243.771-11.783-10.078-9.589 9.689 
    9.714 11.603-.838 1.247a45.21 45.21 0 0 0-6.488 14.837l-.334 1.41L4.652 56.05v13.722l14.991 1.265.281 1.496a45.215 
    45.215 0 0 0 5.781 15.138l.741 1.223-9.973 11.914 9.584 9.691 11.479-9.814 1.266.869a44.29 44.29 0 0 0 14.668 
    6.558l1.403.341L56.154 124z"/>
    <path fill="#282D33" d="M64 92.173c-16.022 0-29.059-13.164-29.059-29.345S47.978 33.484 64 33.484v4c-13.817 
    0-25.059 11.369-25.059 25.344 0 13.976 11.241 25.345 25.059 25.345 13.815 0 25.055-11.369 25.055-25.345h4c0 
    16.181-13.034 29.345-29.055 29.345z"/>
    <path fill="#282D33" d="m57.199 48.042-2.843-2.814 7.938-8.021-7.939-8.024 2.844-2.814 10.722 10.839z"/>
</svg>